<svg version="1" xmlns="http://www.w3.org/2000/svg" width="702.667" height="702.667" viewBox="0 0 527.000000 527.000000"><path d="M208.3 26c-11.9 2.4-24.2 12.3-30.3 24.5-3.3 6.6-3.5 7.4-3.5 17.4 0 10.8.4 14.1 2.5 19.8 1.4 3.8.2 5.5-5.3 7.8-3.2 1.3-3.6 1.2-7.1-1.1-4.6-3.2-10.9-5.4-15.2-5.4-10.5 0-16.9 9.3-13.8 20.3.8 2.9 1.6 6 1.9 7.1.3 1.1-.6 2.9-2.3 4.5-2.1 2.1-3.8 2.8-7.7 2.9-15.7.7-27.2 12.2-27.6 27.7-.2 8.1-1.6 9.5-9 9.5-18.3 0-32.3 20.1-26.4 38 1 2.9 3.8 7.7 6.3 10.8l4.6 5.6-1.8 8.6c-1 4.7-2 9.6-2.2 11-1 5.2-1.7 6.2-8.2 10.5-6.3 4.1-11 9.3-15.9 17.5-8.6 14.6-6.7 36.5 4.4 49.7 1 1.2 2.8 3.5 4.1 5.1 1.2 1.7 3.7 3.8 5.5 4.7 1.8 1 5.9 3.1 9.2 4.9 3.5 1.8 6.1 3.9 6.3 5 .3 1.3-1.4 3.6-5.2 7.1-6.1 5.7-8.6 10.4-8.6 16 0 11.8 12.9 22.3 28.5 23.3 8.4.5 8.8.8 17.8 12.5 7.5 9.8 7.5 9.5 3.5 20.2-1.6 4.5-2.2 8.3-2.2 15-.1 8 .2 9.6 2.7 14.3 3.9 7.4 8.9 12.6 14.5 15 11.3 4.9 24.2 3.7 38.4-3.6l8.8-4.5 4.5 1.7c8.4 3.2 8.9 4.2 9.5 15.3.5 8.6 1 10.8 3.8 16.5 10 20.4 33.2 28.5 53.8 18.9 9.8-4.6 17-12.9 21.8-25.3 2.2-5.5 5.5-6.7 11-4.1 9.5 4.6 19.4 3.7 27.4-2.5 5.3-4.1 6.7-4.4 12.3-2.2 6 2.4 12.3 2.6 17.3.5 4-1.7 9.6-7 9.6-9.1 0-.8.4-1.4.9-1.4s1.1-.8 1.3-1.8c.3-1 5.4-4.2 12.4-7.8l11.9-6.1 7.7.5c9.4.5 16.4-1 23.8-5.1 13.7-7.5 22-22.1 22-38.5 0-5.9.3-6.9 4.3-12.5 2.3-3.4 4.6-6.6 5-7.2.5-.5 3.7-5.9 7.2-12l6.3-10.9 6.3-2.2c9.9-3.3 15-6.2 20.5-11.9 7.1-7.2 9.4-12.4 9.4-21.2 0-4.7-.6-8.6-1.9-11.5-1.7-4-8.2-11.4-14.3-16.5l-2.7-2.2v-15.6c-.1-8.6.2-16.7.5-17.9.3-1.2 2-3.1 3.7-4.1 5.2-3 11.4-10.1 14.7-16.8 4.1-8.4 4.8-15.7 2.5-24.4-1.8-6.6-3.1-9-8.9-16.6-4-5.3-15.3-10.6-24.2-11.4-5.1-.5-7.3-1.2-8.7-2.7-3.5-3.8-14.7-23-14.7-25.2 0-1.2.7-4.1 1.6-6.5 1.1-2.8 1.7-8 1.8-14.4.2-15.4-.7-19.5-6.7-31-7-13.6-15.9-20.3-29.4-22-7.2-.9-15.1 2.3-21.4 8.7-2.7 2.7-4.9 5.3-4.9 5.8s-.9 1.4-2 2c-1.7.9-3.9.1-13-4.5-11.6-6-11.4-5.7-12.4-14.2-.8-6.3-5.1-14.7-10.3-19.9-16-16.2-44.7-13.2-56.2 5.9-6 9.9-13.3 9.1-15.1-1.7-2-12.6-12.1-27-22.5-32.3-9.5-4.9-21.2-6.4-32.2-4.3zm57.8 176.9c.3 0 2.4 1.8 4.7 3.9 6 5.6 9.4 6.4 19.7 4.7 3.4-.5 4.8-.1 8.8 2.4 4.5 2.9 7.4 7.2 6.2 9.2-2.4 3.8-3.8 26.8-2.2 34.4.5 2.2 1.1 5.1 1.3 6.3.3 1.3 1.1 4.3 2 6.5.8 2.3 1.7 4.9 1.9 5.7.9 3.5 4 8.4 8.7 13.5 4.4 4.8 5 5.9 4.4 8.6-.8 4.2-6.9 13.1-13.6 19.8-8.7 8.7-12 10.5-16 8.7-1.4-.6-2.7-1.4-3-1.7-1-1.3-14.9-6.8-18.7-7.4-3.6-.6-14.6-1.6-16.8-1.6-8.6.2-17.4 1.7-24.7 4.1-10.4 3.5-10.6 3.5-17.5-4.7-2.6-3.2-5.1-6-5.4-6.3-.7-.5-3.6-5.7-7.7-13.7-1.3-2.4-.7-5.2 1.2-5.4.6 0 3.4-.2 6.3-.4 16.7-1.2 28.5-9.1 36.2-24.1 8.6-17.1 5-33.3-11.2-50.5l-2.8-3 2.5-2c2.5-1.9 16.6-7.3 16.6-6.3 0 .3.7.1 1.5-.3 1.2-.7 15-1 17.6-.4zM504.7 183.5c-.4.8-.2 1.7.3 2 .6.4 1-.3 1-1.4 0-2.5-.6-2.7-1.3-.6z"/></svg>