<?xml version="1.0" encoding="utf-8"?>
<svg version="1.1" id="Layer_1" xmlns="http://www.w3.org/2000/svg" xmlns:xlink="http://www.w3.org/1999/xlink" x="0px" y="0px"
	 viewBox="12 19 279 72" xml:space="preserve">
<style type="text/css">
	.st0{fill:#38160C;}
	.st1{fill:#F15A24;}
	.st2{fill:#F7720F;}
	.st3{fill:url(#SVGID_1_);}
	.st4{fill:url(#SVGID_2_);}
	.st5{fill:url(#SVGID_3_);}
	.st6{fill:url(#SVGID_4_);}
	.st7{fill:url(#SVGID_5_);}
	.st8{fill:url(#SVGID_6_);}
	.st9{fill:url(#SVGID_7_);}
	.st10{fill:url(#SVGID_8_);}
	.st11{fill:url(#SVGID_9_);}
	.st12{fill:url(#SVGID_10_);}
	.st13{fill:url(#SVGID_11_);}
	.st14{fill:url(#SVGID_12_);}
	.st15{fill:url(#SVGID_13_);}
	.st16{fill:url(#SVGID_14_);}
	.st17{fill:url(#SVGID_15_);}
	.st18{fill:url(#SVGID_16_);}
	.st19{fill:url(#SVGID_17_);}
	.st20{fill:url(#SVGID_18_);}
	.st21{fill:url(#SVGID_19_);}
	.st22{fill:url(#SVGID_20_);}
	.st23{fill:url(#SVGID_21_);}
	.st24{fill:url(#SVGID_22_);}
	.st25{fill:url(#SVGID_23_);}
	.st26{fill:url(#SVGID_24_);}
	.st27{fill:url(#SVGID_25_);}
	.st28{fill:url(#SVGID_26_);}
	.st29{fill:url(#SVGID_27_);}
</style>
<g>
	<path class="st0" d="M13.3,24.4c0-2.7,1.4-4.2,4.2-4.2h4.8c2.7,0,4.2,1.4,4.2,4.2v12.9c0,2-0.2,3.3-0.2,3.3h0.2
		c2.2-3.9,6.7-6.2,11.9-6.2c7.9,0,14,3.6,14,14.6v21.1c0,2.7-1.4,4.2-4.2,4.2h-4.8c-2.7,0-4.2-1.4-4.2-4.2V51.5
		c0-3.6-1.4-5.1-4.3-5.1c-5.7,0-8.5,4.5-8.5,10.4v13.4c0,2.7-1.4,4.2-4.2,4.2h-4.8c-2.7,0-4.2-1.4-4.2-4.2V24.4z"/>
	<path class="st0" d="M61.3,46.2h-1.1c-2.6,0-4.1-1.4-4.1-4.2v-1.9c0-2.7,1.4-4.2,4.2-4.2h1.4v-7c0-2.7,1.4-4.2,4.2-4.2h4.4
		c2.7,0,4.2,1.4,4.2,4.2v7h4c2.7,0,4.2,1.4,4.2,4.2v1.9c0,2.7-1.4,4.2-4.1,4.2h-4.1v11.8c0,3.3,2.2,4.6,4.5,4.9
		c3,0.4,4.2,1.3,4.2,4.2v3.4c0,3.1-1.9,4.2-5.4,4.2c-5.8,0-16.4-2.6-16.4-14.2V46.2z"/>
	<path class="st0" d="M91.1,46.2H90c-2.6,0-4.1-1.4-4.1-4.2v-1.9c0-2.7,1.4-4.2,4.2-4.2h1.4v-7c0-2.7,1.4-4.2,4.2-4.2h4.4
		c2.7,0,4.2,1.4,4.2,4.2v7h4c2.7,0,4.2,1.4,4.2,4.2v1.9c0,2.7-1.4,4.2-4.1,4.2h-4.1v11.8c0,3.3,2.2,4.6,4.5,4.9
		c3,0.4,4.2,1.3,4.2,4.2v3.4c0,3.1-1.9,4.2-5.4,4.2c-5.8,0-16.4-2.6-16.4-14.2V46.2z"/>
	<path class="st1" d="M118.4,39.5c0-2.7,1.4-4.2,4.2-4.2h3.4c2.7,0,4.2,1.4,4.2,3.4v0.8c0,0.4-0.1,0.8-0.1,0.8h0.2
		c0,0,3.6-5.9,11.8-5.9c10.6,0,17.6,8.3,17.6,20.4c0,12.3-7.8,20.4-18.2,20.4c-7,0-9.9-4.5-9.9-4.5h-0.2c0,0,0.2,1.4,0.2,3.3v11.2
		c0,2.7-1.4,4.2-4.2,4.2h-4.8c-2.7,0-4.2-1.4-4.2-4.2V39.5z M138.7,64.4c4.1,0,7.6-3.3,7.6-9.3c0-5.8-3.1-9.6-7.6-9.6
		c-3.9,0-7.6,2.9-7.6,9.6C131.1,59.8,133.6,64.4,138.7,64.4z"/>
	<path class="st1" d="M222.9,55l-9.4-14.7c-1.8-2.8-0.6-5,2.8-5h5.4c2.3,0,3.9,1,4.9,3l2.7,5.7c0.5,1,1.2,2.6,1.2,2.6h0.2
		c0,0,0.8-1.6,1.2-2.6l2.7-5.7c1.1-2,2.6-3,4.9-3h5.4c3.4,0,4.6,2.2,2.8,5L238.5,55l9.1,14.3c1.8,2.8,0.6,5-2.8,5h-5.1
		c-2.3,0-3.8-0.9-4.9-3l-3.1-5.8c-0.4-0.7-0.9-2-0.9-2h-0.2c0,0-0.5,1.3-0.9,2l-3,5.8c-1.1,2-2.6,3-4.9,3h-5.1c-3.4,0-4.6-2.2-2.8-5
		L222.9,55z"/>
	<path class="st1" d="M256.5,79.2c0.6,0.2,1.4,0.4,2.3,0.4c2.3,0,4.5-1.9,5.4-4.2l0.8-1.8l-14.5-33.4c-1.3-2.9,0-4.8,3.2-4.8h5.9
		c2.5,0,4,1.1,4.8,3.4l4.6,14.5c0.7,2.1,1.4,6.1,1.4,6.1h0.2c0,0,0.8-3.7,1.3-5.8l3.9-14.6c0.7-2.4,2.2-3.6,4.7-3.6h5.5
		c3,0,4.4,1.9,3.3,4.8l-14.2,38.4c-3.3,8.7-10.1,11.7-16.3,11.7c-2,0-3.9-0.5-5.4-1c-2.5-0.8-3.1-3-2-5.4l1-2.2
		C253.4,79.2,254.9,78.9,256.5,79.2z"/>
</g>
<g>
	<path class="st2" d="M188.9,76.5c-12.1,0-21.9-9.8-21.9-21.9s9.8-21.9,21.9-21.9s21.9,9.8,21.9,21.9S200.9,76.5,188.9,76.5z
		 M188.2,45.4c-5,0-9.1,4.1-9.1,9.1c0,5,4.1,9.1,9.1,9.1s9.1-4.1,9.1-9.1C197.3,49.5,193.2,45.4,188.2,45.4z"/>
	<path class="st1" d="M188.9,34c11.4,0,20.6,9.2,20.6,20.6c0,11.4-9.2,20.6-20.6,20.6c-11.4,0-20.6-9.2-20.6-20.6
		C168.2,43.2,177.5,34,188.9,34 M188.2,64.9c5.7,0,10.4-4.6,10.4-10.4s-4.6-10.4-10.4-10.4s-10.4,4.6-10.4,10.4
		S182.5,64.9,188.2,64.9 M188.9,31.5c-12.8,0-23.1,10.4-23.1,23.1c0,12.8,10.4,23.1,23.1,23.1c12.8,0,23.1-10.4,23.1-23.1
		C212,41.8,201.6,31.5,188.9,31.5L188.9,31.5z M188.2,62.4c-4.3,0-7.9-3.5-7.9-7.9s3.5-7.9,7.9-7.9s7.9,3.5,7.9,7.9
		S192.5,62.4,188.2,62.4L188.2,62.4z"/>
</g>
<g>

		<linearGradient id="SVGID_1_" gradientUnits="userSpaceOnUse" x1="268.4996" y1="520.8963" x2="278.8121" y2="520.8963" gradientTransform="matrix(0.4531 -0.6918 0.6481 0.5137 -257.2524 -40.3361)">
		<stop  offset="0" style="stop-color:#FFFFFF"/>
		<stop  offset="2.553141e-02" style="stop-color:#FFF2E4"/>
		<stop  offset="7.004297e-02" style="stop-color:#FFDEBB"/>
		<stop  offset="0.12" style="stop-color:#FFCC95"/>
		<stop  offset="0.1745" style="stop-color:#FFBD75"/>
		<stop  offset="0.2347" style="stop-color:#FFB059"/>
		<stop  offset="0.3027" style="stop-color:#FFA543"/>
		<stop  offset="0.382" style="stop-color:#FF9D32"/>
		<stop  offset="0.4802" style="stop-color:#FF9727"/>
		<stop  offset="0.6179" style="stop-color:#FF9420"/>
		<stop  offset="1" style="stop-color:#FF931E"/>
	</linearGradient>
	<path class="st3" d="M204.7,42.9c-1.8,0-3.5-1.9-3.9-4.4c-0.2-1.3-0.1-2.5,0.4-3.6c0.5-1.1,1.3-1.8,2.3-1.9c0.1,0,0.3,0,0.4,0
		c1.8,0,3.5,1.9,3.9,4.4c0.4,2.7-0.8,5.2-2.7,5.5C205,42.9,204.8,42.9,204.7,42.9z"/>
	<path class="st1" d="M203.9,33.5c1.5,0,3,1.7,3.4,4c0.4,2.4-0.6,4.6-2.3,4.9c-0.1,0-0.2,0-0.3,0c-1.5,0-3-1.7-3.4-4
		c-0.4-2.4,0.6-4.6,2.3-4.9C203.7,33.5,203.8,33.5,203.9,33.5 M203.9,32.5L203.9,32.5c-0.2,0-0.3,0-0.5,0c-1.1,0.2-2.1,1-2.6,2.2
		c-0.5,1.1-0.7,2.5-0.4,3.8c0.5,2.8,2.3,4.8,4.3,4.8c0.2,0,0.3,0,0.5,0c2.2-0.4,3.6-3,3.1-6C207.8,34.5,206,32.5,203.9,32.5
		L203.9,32.5z"/>
</g>
<g>
	<linearGradient id="SVGID_2_" gradientUnits="userSpaceOnUse" x1="206.364" y1="48.6908" x2="214.1004" y2="48.6908">
		<stop  offset="0" style="stop-color:#FFFFFF"/>
		<stop  offset="2.553141e-02" style="stop-color:#FFF2E4"/>
		<stop  offset="7.004297e-02" style="stop-color:#FFDEBB"/>
		<stop  offset="0.12" style="stop-color:#FFCC95"/>
		<stop  offset="0.1745" style="stop-color:#FFBD75"/>
		<stop  offset="0.2347" style="stop-color:#FFB059"/>
		<stop  offset="0.3027" style="stop-color:#FFA543"/>
		<stop  offset="0.382" style="stop-color:#FF9D32"/>
		<stop  offset="0.4802" style="stop-color:#FF9727"/>
		<stop  offset="0.6179" style="stop-color:#FF9420"/>
		<stop  offset="1" style="stop-color:#FF931E"/>
	</linearGradient>
	<circle class="st4" cx="210.2" cy="48.7" r="3.9"/>
	<path class="st1" d="M210.2,45.3c1.9,0,3.4,1.5,3.4,3.4s-1.5,3.4-3.4,3.4s-3.4-1.5-3.4-3.4S208.4,45.3,210.2,45.3 M210.2,44.3
		c-2.4,0-4.4,2-4.4,4.4s2,4.4,4.4,4.4s4.4-2,4.4-4.4S212.6,44.3,210.2,44.3L210.2,44.3z"/>
</g>
<g>
	<linearGradient id="SVGID_3_" gradientUnits="userSpaceOnUse" x1="197.9744" y1="69.5628" x2="206.7986" y2="69.5628">
		<stop  offset="0" style="stop-color:#FFFFFF"/>
		<stop  offset="2.553141e-02" style="stop-color:#FFF2E4"/>
		<stop  offset="7.004297e-02" style="stop-color:#FFDEBB"/>
		<stop  offset="0.12" style="stop-color:#FFCC95"/>
		<stop  offset="0.1745" style="stop-color:#FFBD75"/>
		<stop  offset="0.2347" style="stop-color:#FFB059"/>
		<stop  offset="0.3027" style="stop-color:#FFA543"/>
		<stop  offset="0.382" style="stop-color:#FF9D32"/>
		<stop  offset="0.4802" style="stop-color:#FF9727"/>
		<stop  offset="0.6179" style="stop-color:#FF9420"/>
		<stop  offset="1" style="stop-color:#FF931E"/>
	</linearGradient>
	<circle class="st5" cx="202.4" cy="69.6" r="4.4"/>
	<path class="st1" d="M202.4,65.7c2.2,0,3.9,1.8,3.9,3.9c0,2.2-1.8,3.9-3.9,3.9c-2.2,0-3.9-1.8-3.9-3.9
		C198.5,67.4,200.2,65.7,202.4,65.7 M202.4,64.7c-2.7,0-4.9,2.2-4.9,4.9c0,2.7,2.2,4.9,4.9,4.9s4.9-2.2,4.9-4.9
		C207.3,66.9,205.1,64.7,202.4,64.7L202.4,64.7z"/>
</g>
<g>
	<linearGradient id="SVGID_4_" gradientUnits="userSpaceOnUse" x1="163.1707" y1="56.2516" x2="173.0623" y2="56.2516">
		<stop  offset="0" style="stop-color:#FFFFFF"/>
		<stop  offset="2.553141e-02" style="stop-color:#FFF2E4"/>
		<stop  offset="7.004297e-02" style="stop-color:#FFDEBB"/>
		<stop  offset="0.12" style="stop-color:#FFCC95"/>
		<stop  offset="0.1745" style="stop-color:#FFBD75"/>
		<stop  offset="0.2347" style="stop-color:#FFB059"/>
		<stop  offset="0.3027" style="stop-color:#FFA543"/>
		<stop  offset="0.382" style="stop-color:#FF9D32"/>
		<stop  offset="0.4802" style="stop-color:#FF9727"/>
		<stop  offset="0.6179" style="stop-color:#FF9420"/>
		<stop  offset="1" style="stop-color:#FF931E"/>
	</linearGradient>
	<circle class="st6" cx="168.1" cy="56.3" r="4.9"/>
	<path class="st1" d="M168.1,51.8c2.5,0,4.4,2,4.4,4.4s-2,4.4-4.4,4.4c-2.5,0-4.4-2-4.4-4.4S165.7,51.8,168.1,51.8 M168.1,50.8
		c-3,0-5.4,2.4-5.4,5.4s2.4,5.4,5.4,5.4s5.4-2.4,5.4-5.4S171.1,50.8,168.1,50.8L168.1,50.8z"/>
</g>
<g>
	<linearGradient id="SVGID_5_" gradientUnits="userSpaceOnUse" x1="169.8572" y1="40.9071" x2="175.5838" y2="40.9071">
		<stop  offset="0" style="stop-color:#FFFFFF"/>
		<stop  offset="2.553141e-02" style="stop-color:#FFF2E4"/>
		<stop  offset="7.004297e-02" style="stop-color:#FFDEBB"/>
		<stop  offset="0.12" style="stop-color:#FFCC95"/>
		<stop  offset="0.1745" style="stop-color:#FFBD75"/>
		<stop  offset="0.2347" style="stop-color:#FFB059"/>
		<stop  offset="0.3027" style="stop-color:#FFA543"/>
		<stop  offset="0.382" style="stop-color:#FF9D32"/>
		<stop  offset="0.4802" style="stop-color:#FF9727"/>
		<stop  offset="0.6179" style="stop-color:#FF9420"/>
		<stop  offset="1" style="stop-color:#FF931E"/>
	</linearGradient>
	<circle class="st7" cx="172.7" cy="40.9" r="2.9"/>
	<path class="st1" d="M172.7,38.5c1.3,0,2.4,1.1,2.4,2.4s-1.1,2.4-2.4,2.4c-1.3,0-2.4-1.1-2.4-2.4S171.4,38.5,172.7,38.5
		 M172.7,37.5c-1.9,0-3.4,1.5-3.4,3.4s1.5,3.4,3.4,3.4s3.4-1.5,3.4-3.4S174.6,37.5,172.7,37.5L172.7,37.5z"/>
</g>
<g>

		<linearGradient id="SVGID_6_" gradientUnits="userSpaceOnUse" x1="146.3045" y1="112.0488" x2="156.1158" y2="112.0488" gradientTransform="matrix(1.1964 -0.4373 -0.4373 1.1964 51.3091 -36.5852)">
		<stop  offset="0" style="stop-color:#FFFFFF"/>
		<stop  offset="2.553141e-02" style="stop-color:#FFF2E4"/>
		<stop  offset="7.004297e-02" style="stop-color:#FFDEBB"/>
		<stop  offset="0.12" style="stop-color:#FFCC95"/>
		<stop  offset="0.1745" style="stop-color:#FFBD75"/>
		<stop  offset="0.2347" style="stop-color:#FFB059"/>
		<stop  offset="0.3027" style="stop-color:#FFA543"/>
		<stop  offset="0.382" style="stop-color:#FF9D32"/>
		<stop  offset="0.4802" style="stop-color:#FF9727"/>
		<stop  offset="0.6179" style="stop-color:#FF9420"/>
		<stop  offset="1" style="stop-color:#FF931E"/>
	</linearGradient>
	<path class="st8" d="M183.2,36.1c-1.3,0-2.5-0.5-3.4-1.4s-1.4-2.1-1.4-3.4s0.5-2.5,1.4-3.4s2.1-1.4,3.4-1.4s2.5,0.5,3.4,1.4
		s1.4,2.1,1.4,3.4s-0.5,2.5-1.4,3.4S184.5,36.1,183.2,36.1z"/>
	<path class="st1" d="M183.2,27.1c1.1,0,2.2,0.4,3,1.3c1.7,1.7,1.7,4.4,0,6c-0.8,0.8-1.9,1.3-3,1.3c-1.1,0-2.2-0.4-3-1.3
		c-1.7-1.7-1.7-4.4,0-6C181,27.5,182.1,27.1,183.2,27.1 M183.2,26.1c-1.4,0-2.7,0.5-3.7,1.5c-2.1,2.1-2.1,5.4,0,7.5
		c1,1,2.3,1.5,3.7,1.5c1.4,0,2.7-0.5,3.7-1.5c2.1-2.1,2.1-5.4,0-7.5C185.9,26.6,184.6,26.1,183.2,26.1L183.2,26.1z"/>
</g>
<g>
	<linearGradient id="SVGID_7_" gradientUnits="userSpaceOnUse" x1="189.8601" y1="33.047" x2="197.4412" y2="33.047">
		<stop  offset="0" style="stop-color:#FFFFFF"/>
		<stop  offset="2.553141e-02" style="stop-color:#FFF2E4"/>
		<stop  offset="7.004297e-02" style="stop-color:#FFDEBB"/>
		<stop  offset="0.12" style="stop-color:#FFCC95"/>
		<stop  offset="0.1745" style="stop-color:#FFBD75"/>
		<stop  offset="0.2347" style="stop-color:#FFB059"/>
		<stop  offset="0.3027" style="stop-color:#FFA543"/>
		<stop  offset="0.382" style="stop-color:#FF9D32"/>
		<stop  offset="0.4802" style="stop-color:#FF9727"/>
		<stop  offset="0.6179" style="stop-color:#FF9420"/>
		<stop  offset="1" style="stop-color:#FF931E"/>
	</linearGradient>
	<circle class="st9" cx="193.7" cy="33" r="3.8"/>
	<path class="st1" d="M193.7,29.8c1.8,0,3.3,1.5,3.3,3.3c0,1.8-1.5,3.3-3.3,3.3c-1.8,0-3.3-1.5-3.3-3.3
		C190.4,31.2,191.8,29.8,193.7,29.8 M193.7,28.8c-2.4,0-4.3,1.9-4.3,4.3s1.9,4.3,4.3,4.3s4.3-1.9,4.3-4.3S196,28.8,193.7,28.8
		L193.7,28.8z"/>
</g>
<g>
	<linearGradient id="SVGID_8_" gradientUnits="userSpaceOnUse" x1="180.1863" y1="77.0541" x2="188.6834" y2="77.0541">
		<stop  offset="0" style="stop-color:#FFFFFF"/>
		<stop  offset="2.553141e-02" style="stop-color:#FFF2E4"/>
		<stop  offset="7.004297e-02" style="stop-color:#FFDEBB"/>
		<stop  offset="0.12" style="stop-color:#FFCC95"/>
		<stop  offset="0.1745" style="stop-color:#FFBD75"/>
		<stop  offset="0.2347" style="stop-color:#FFB059"/>
		<stop  offset="0.3027" style="stop-color:#FFA543"/>
		<stop  offset="0.382" style="stop-color:#FF9D32"/>
		<stop  offset="0.4802" style="stop-color:#FF9727"/>
		<stop  offset="0.6179" style="stop-color:#FF9420"/>
		<stop  offset="1" style="stop-color:#FF931E"/>
	</linearGradient>
	<circle class="st10" cx="184.4" cy="77.1" r="4.2"/>
	<path class="st1" d="M184.4,73.3c2.1,0,3.7,1.7,3.7,3.7c0,2.1-1.7,3.7-3.7,3.7c-2.1,0-3.7-1.7-3.7-3.7
		C180.7,75,182.4,73.3,184.4,73.3 M184.4,72.3c-2.6,0-4.7,2.1-4.7,4.7s2.1,4.7,4.7,4.7s4.7-2.1,4.7-4.7S187.1,72.3,184.4,72.3
		L184.4,72.3z"/>
</g>
<g>
	<linearGradient id="SVGID_9_" gradientUnits="userSpaceOnUse" x1="171.0835" y1="71.5624" x2="180.1007" y2="71.5624">
		<stop  offset="0" style="stop-color:#FFFFFF"/>
		<stop  offset="2.553141e-02" style="stop-color:#FFF2E4"/>
		<stop  offset="7.004297e-02" style="stop-color:#FFDEBB"/>
		<stop  offset="0.12" style="stop-color:#FFCC95"/>
		<stop  offset="0.1745" style="stop-color:#FFBD75"/>
		<stop  offset="0.2347" style="stop-color:#FFB059"/>
		<stop  offset="0.3027" style="stop-color:#FFA543"/>
		<stop  offset="0.382" style="stop-color:#FF9D32"/>
		<stop  offset="0.4802" style="stop-color:#FF9727"/>
		<stop  offset="0.6179" style="stop-color:#FF9420"/>
		<stop  offset="1" style="stop-color:#FF931E"/>
	</linearGradient>
	<path class="st11" d="M174.4,76.1c-1,0-1.8-0.3-2.4-0.9c-0.8-0.8-1.1-1.8-0.9-3.1c0.2-1.2,0.8-2.3,1.7-3.3c1.1-1.1,2.6-1.8,3.9-1.8
		c1,0,1.8,0.3,2.4,0.9c1.5,1.5,1.1,4.3-0.9,6.3C177.2,75.4,175.8,76.1,174.4,76.1z"/>
	<path class="st1" d="M176.8,67.6c0.8,0,1.5,0.3,2,0.8c1.3,1.3,0.9,3.8-0.9,5.6c-1.1,1.1-2.4,1.6-3.6,1.6c-0.8,0-1.5-0.3-2-0.8
		c-1.3-1.3-0.9-3.8,0.9-5.6C174.3,68.1,175.6,67.6,176.8,67.6 M176.8,66.6L176.8,66.6c-1.5,0-3.1,0.7-4.3,1.9c-1,1-1.7,2.3-1.9,3.5
		c-0.2,1.4,0.2,2.6,1,3.5c0.7,0.7,1.7,1.1,2.7,1.1c1.5,0,3.1-0.7,4.3-1.9c1-1,1.7-2.3,1.9-3.5c0.2-1.4-0.2-2.6-1-3.5
		C178.8,66.9,177.9,66.6,176.8,66.6L176.8,66.6z"/>
</g>
<g>
	<linearGradient id="SVGID_10_" gradientUnits="userSpaceOnUse" x1="165.616" y1="64.4818" x2="172.2029" y2="64.4818">
		<stop  offset="0" style="stop-color:#FFFFFF"/>
		<stop  offset="2.553141e-02" style="stop-color:#FFF2E4"/>
		<stop  offset="7.004297e-02" style="stop-color:#FFDEBB"/>
		<stop  offset="0.12" style="stop-color:#FFCC95"/>
		<stop  offset="0.1745" style="stop-color:#FFBD75"/>
		<stop  offset="0.2347" style="stop-color:#FFB059"/>
		<stop  offset="0.3027" style="stop-color:#FFA543"/>
		<stop  offset="0.382" style="stop-color:#FF9D32"/>
		<stop  offset="0.4802" style="stop-color:#FF9727"/>
		<stop  offset="0.6179" style="stop-color:#FF9420"/>
		<stop  offset="1" style="stop-color:#FF931E"/>
	</linearGradient>
	<path class="st12" d="M168.9,66.8c-1.8,0-3.3-1-3.3-2.3s1.4-2.3,3.3-2.3s3.3,1,3.3,2.3S170.8,66.8,168.9,66.8z"/>
	<path class="st1" d="M168.9,62.7c1.5,0,2.8,0.8,2.8,1.8c0,1-1.3,1.8-2.8,1.8s-2.8-0.8-2.8-1.8C166.1,63.5,167.4,62.7,168.9,62.7
		 M168.9,61.7c-2.1,0-3.8,1.2-3.8,2.8c0,1.6,1.7,2.8,3.8,2.8s3.8-1.2,3.8-2.8C172.7,62.9,171,61.7,168.9,61.7L168.9,61.7z"/>
</g>
<g>
	<linearGradient id="SVGID_11_" gradientUnits="userSpaceOnUse" x1="173.8992" y1="35.9071" x2="177.7078" y2="35.9071">
		<stop  offset="0" style="stop-color:#FFFFFF"/>
		<stop  offset="2.553141e-02" style="stop-color:#FFF2E4"/>
		<stop  offset="7.004297e-02" style="stop-color:#FFDEBB"/>
		<stop  offset="0.12" style="stop-color:#FFCC95"/>
		<stop  offset="0.1745" style="stop-color:#FFBD75"/>
		<stop  offset="0.2347" style="stop-color:#FFB059"/>
		<stop  offset="0.3027" style="stop-color:#FFA543"/>
		<stop  offset="0.382" style="stop-color:#FF9D32"/>
		<stop  offset="0.4802" style="stop-color:#FF9727"/>
		<stop  offset="0.6179" style="stop-color:#FF9420"/>
		<stop  offset="1" style="stop-color:#FF931E"/>
	</linearGradient>
	<path class="st13" d="M176.4,37.8c-0.6,0-1.2-0.3-1.7-0.8c-0.5-0.5-0.8-1.1-0.8-1.7c0-0.4,0.1-0.7,0.4-0.9c0.2-0.2,0.6-0.4,0.9-0.4
		c0.6,0,1.2,0.3,1.7,0.8c0.5,0.5,0.8,1.1,0.8,1.7c0,0.4-0.1,0.7-0.4,0.9C177.1,37.7,176.8,37.8,176.4,37.8z"/>
	<path class="st1" d="M175.2,34.5c0.4,0,0.9,0.2,1.4,0.7c0.7,0.7,0.9,1.5,0.4,1.9c-0.1,0.1-0.4,0.2-0.6,0.2c-0.4,0-0.9-0.2-1.4-0.7
		c-0.7-0.7-0.9-1.5-0.4-1.9C174.8,34.6,175,34.5,175.2,34.5 M175.2,33.5L175.2,33.5c-0.5,0-1,0.2-1.3,0.5c-0.4,0.4-0.6,1.1-0.5,1.8
		c0.1,0.5,0.4,1.1,0.9,1.5c0.6,0.6,1.4,0.9,2.1,0.9c0.5,0,1-0.2,1.3-0.5c0.4-0.4,0.6-1.1,0.5-1.8c-0.1-0.5-0.4-1.1-0.9-1.5
		C176.7,33.8,175.9,33.5,175.2,33.5L175.2,33.5z"/>
</g>
<g>
	<linearGradient id="SVGID_12_" gradientUnits="userSpaceOnUse" x1="177.2303" y1="52.0091" x2="185.9334" y2="52.0091">
		<stop  offset="0" style="stop-color:#FFFFFF"/>
		<stop  offset="2.553141e-02" style="stop-color:#FFF2E4"/>
		<stop  offset="7.004297e-02" style="stop-color:#FFDEBB"/>
		<stop  offset="0.12" style="stop-color:#FFCC95"/>
		<stop  offset="0.1745" style="stop-color:#FFBD75"/>
		<stop  offset="0.2347" style="stop-color:#FFB059"/>
		<stop  offset="0.3027" style="stop-color:#FFA543"/>
		<stop  offset="0.382" style="stop-color:#FF9D32"/>
		<stop  offset="0.4802" style="stop-color:#FF9727"/>
		<stop  offset="0.6179" style="stop-color:#FF9420"/>
		<stop  offset="1" style="stop-color:#FF931E"/>
	</linearGradient>
	<circle class="st14" cx="181.6" cy="52" r="4.4"/>
	<path class="st1" d="M181.6,48.2c2.1,0,3.9,1.7,3.9,3.9s-1.7,3.9-3.9,3.9s-3.9-1.7-3.9-3.9S179.5,48.2,181.6,48.2 M181.6,47.2
		c-2.7,0-4.9,2.2-4.9,4.9s2.2,4.9,4.9,4.9c2.7,0,4.9-2.2,4.9-4.9S184.3,47.2,181.6,47.2L181.6,47.2z"/>
</g>
<g>
	<linearGradient id="SVGID_13_" gradientUnits="userSpaceOnUse" x1="193.45" y1="51.691" x2="200.0408" y2="51.691">
		<stop  offset="0" style="stop-color:#FFFFFF"/>
		<stop  offset="2.553141e-02" style="stop-color:#FFF2E4"/>
		<stop  offset="7.004297e-02" style="stop-color:#FFDEBB"/>
		<stop  offset="0.12" style="stop-color:#FFCC95"/>
		<stop  offset="0.1745" style="stop-color:#FFBD75"/>
		<stop  offset="0.2347" style="stop-color:#FFB059"/>
		<stop  offset="0.3027" style="stop-color:#FFA543"/>
		<stop  offset="0.382" style="stop-color:#FF9D32"/>
		<stop  offset="0.4802" style="stop-color:#FF9727"/>
		<stop  offset="0.6179" style="stop-color:#FF9420"/>
		<stop  offset="1" style="stop-color:#FF931E"/>
	</linearGradient>
	<path class="st15" d="M196.7,57.4c-1.8,0-3.3-2.5-3.3-5.7c0-3.2,1.4-5.7,3.3-5.7c1.8,0,3.3,2.5,3.3,5.7
		C200,54.9,198.6,57.4,196.7,57.4z"/>
	<path class="st1" d="M196.7,46.5c1.5,0,2.8,2.3,2.8,5.2s-1.3,5.2-2.8,5.2c-1.5,0-2.8-2.3-2.8-5.2S195.2,46.5,196.7,46.5
		 M196.7,45.5c-2.2,0-3.8,2.7-3.8,6.2s1.6,6.2,3.8,6.2s3.8-2.7,3.8-6.2S198.9,45.5,196.7,45.5L196.7,45.5z"/>
</g>
<g>
	<linearGradient id="SVGID_14_" gradientUnits="userSpaceOnUse" x1="181.7801" y1="63.7811" x2="192.7566" y2="63.7811">
		<stop  offset="0" style="stop-color:#FFFFFF"/>
		<stop  offset="2.553141e-02" style="stop-color:#FFF2E4"/>
		<stop  offset="7.004297e-02" style="stop-color:#FFDEBB"/>
		<stop  offset="0.12" style="stop-color:#FFCC95"/>
		<stop  offset="0.1745" style="stop-color:#FFBD75"/>
		<stop  offset="0.2347" style="stop-color:#FFB059"/>
		<stop  offset="0.3027" style="stop-color:#FFA543"/>
		<stop  offset="0.382" style="stop-color:#FF9D32"/>
		<stop  offset="0.4802" style="stop-color:#FF9727"/>
		<stop  offset="0.6179" style="stop-color:#FF9420"/>
		<stop  offset="1" style="stop-color:#FF931E"/>
	</linearGradient>
	<path class="st16" d="M187.3,67.2c-3.1,0-5.5-1.5-5.5-3.4c0-1.9,2.4-3.4,5.5-3.4s5.5,1.5,5.5,3.4C192.8,65.7,190.3,67.2,187.3,67.2
		z"/>
	<path class="st1" d="M187.3,60.9c2.8,0,5,1.3,5,2.9c0,1.6-2.2,2.9-5,2.9c-2.8,0-5-1.3-5-2.9C182.3,62.2,184.5,60.9,187.3,60.9
		 M187.3,59.9c-3.4,0-6,1.7-6,3.9c0,2.2,2.6,3.9,6,3.9c3.4,0,6-1.7,6-3.9C193.3,61.6,190.6,59.9,187.3,59.9L187.3,59.9z"/>
</g>
<g>
	<linearGradient id="SVGID_15_" gradientUnits="userSpaceOnUse" x1="189.1629" y1="45.8238" x2="192.3572" y2="45.8238">
		<stop  offset="0" style="stop-color:#FFFFFF"/>
		<stop  offset="2.553141e-02" style="stop-color:#FFF2E4"/>
		<stop  offset="7.004297e-02" style="stop-color:#FFDEBB"/>
		<stop  offset="0.12" style="stop-color:#FFCC95"/>
		<stop  offset="0.1745" style="stop-color:#FFBD75"/>
		<stop  offset="0.2347" style="stop-color:#FFB059"/>
		<stop  offset="0.3027" style="stop-color:#FFA543"/>
		<stop  offset="0.382" style="stop-color:#FF9D32"/>
		<stop  offset="0.4802" style="stop-color:#FF9727"/>
		<stop  offset="0.6179" style="stop-color:#FF9420"/>
		<stop  offset="1" style="stop-color:#FF931E"/>
	</linearGradient>
	<circle class="st17" cx="190.8" cy="45.8" r="1.6"/>
	<path class="st1" d="M190.8,44.7c0.6,0,1.1,0.5,1.1,1.1c0,0.6-0.5,1.1-1.1,1.1s-1.1-0.5-1.1-1.1C189.7,45.2,190.2,44.7,190.8,44.7
		 M190.8,43.7c-1.2,0-2.1,0.9-2.1,2.1s0.9,2.1,2.1,2.1s2.1-0.9,2.1-2.1S191.9,43.7,190.8,43.7L190.8,43.7z"/>
</g>
<g>
	<linearGradient id="SVGID_16_" gradientUnits="userSpaceOnUse" x1="182.0154" y1="43.2301" x2="186.408" y2="43.2301">
		<stop  offset="0" style="stop-color:#FFFFFF"/>
		<stop  offset="2.553141e-02" style="stop-color:#FFF2E4"/>
		<stop  offset="7.004297e-02" style="stop-color:#FFDEBB"/>
		<stop  offset="0.12" style="stop-color:#FFCC95"/>
		<stop  offset="0.1745" style="stop-color:#FFBD75"/>
		<stop  offset="0.2347" style="stop-color:#FFB059"/>
		<stop  offset="0.3027" style="stop-color:#FFA543"/>
		<stop  offset="0.382" style="stop-color:#FF9D32"/>
		<stop  offset="0.4802" style="stop-color:#FF9727"/>
		<stop  offset="0.6179" style="stop-color:#FF9420"/>
		<stop  offset="1" style="stop-color:#FF931E"/>
	</linearGradient>
	<circle class="st18" cx="184.2" cy="43.2" r="2.2"/>
	<path class="st1" d="M184.2,41.5c0.9,0,1.7,0.8,1.7,1.7s-0.8,1.7-1.7,1.7c-0.9,0-1.7-0.8-1.7-1.7S183.3,41.5,184.2,41.5
		 M184.2,40.5c-1.5,0-2.7,1.2-2.7,2.7s1.2,2.7,2.7,2.7s2.7-1.2,2.7-2.7S185.7,40.5,184.2,40.5L184.2,40.5z"/>
</g>
<g>

		<linearGradient id="SVGID_17_" gradientUnits="userSpaceOnUse" x1="167.2259" y1="71.1612" x2="171.6176" y2="71.1612" gradientTransform="matrix(0.9987 -5.187887e-02 5.187887e-02 0.9987 5.9284 -2.8898)">
		<stop  offset="0" style="stop-color:#FFFFFF"/>
		<stop  offset="2.553141e-02" style="stop-color:#FFF2E4"/>
		<stop  offset="7.004297e-02" style="stop-color:#FFDEBB"/>
		<stop  offset="0.12" style="stop-color:#FFCC95"/>
		<stop  offset="0.1745" style="stop-color:#FFBD75"/>
		<stop  offset="0.2347" style="stop-color:#FFB059"/>
		<stop  offset="0.3027" style="stop-color:#FFA543"/>
		<stop  offset="0.382" style="stop-color:#FF9D32"/>
		<stop  offset="0.4802" style="stop-color:#FF9727"/>
		<stop  offset="0.6179" style="stop-color:#FF9420"/>
		<stop  offset="1" style="stop-color:#FF931E"/>
	</linearGradient>
	<path class="st19" d="M178.8,61.6c-1.2,0-2.1-0.9-2.2-2.1c-0.1-1.2,0.9-2.2,2.1-2.3l0.1,0c1.2,0,2.1,0.9,2.2,2.1
		c0.1,1.2-0.9,2.2-2.1,2.3L178.8,61.6z"/>
	<path class="st1" d="M178.8,57.7c0.9,0,1.6,0.7,1.7,1.6c0,0.9-0.7,1.7-1.6,1.8c0,0-0.1,0-0.1,0c-0.9,0-1.6-0.7-1.7-1.6
		C177.1,58.5,177.8,57.7,178.8,57.7C178.8,57.7,178.8,57.7,178.8,57.7 M178.8,56.7c0,0-0.1,0-0.1,0c-1.5,0.1-2.6,1.3-2.6,2.8
		c0.1,1.4,1.3,2.6,2.7,2.6c0,0,0.1,0,0.1,0c0.7,0,1.4-0.4,1.9-0.9c0.5-0.5,0.7-1.2,0.7-1.9C181.4,57.8,180.2,56.7,178.8,56.7
		L178.8,56.7z"/>
</g>
<g>
	<linearGradient id="SVGID_18_" gradientUnits="userSpaceOnUse" x1="203.4695" y1="60.2757" x2="213.7322" y2="60.2757">
		<stop  offset="0" style="stop-color:#FFFFFF"/>
		<stop  offset="2.553141e-02" style="stop-color:#FFF2E4"/>
		<stop  offset="7.004297e-02" style="stop-color:#FFDEBB"/>
		<stop  offset="0.12" style="stop-color:#FFCC95"/>
		<stop  offset="0.1745" style="stop-color:#FFBD75"/>
		<stop  offset="0.2347" style="stop-color:#FFB059"/>
		<stop  offset="0.3027" style="stop-color:#FFA543"/>
		<stop  offset="0.382" style="stop-color:#FF9D32"/>
		<stop  offset="0.4802" style="stop-color:#FF9727"/>
		<stop  offset="0.6179" style="stop-color:#FF9420"/>
		<stop  offset="1" style="stop-color:#FF931E"/>
	</linearGradient>
	<ellipse class="st20" cx="208.6" cy="60.3" rx="5.1" ry="3.7"/>
	<path class="st1" d="M208.6,57.1c2.6,0,4.6,1.4,4.6,3.2s-2.1,3.2-4.6,3.2S204,62,204,60.3S206,57.1,208.6,57.1 M208.6,56.1
		c-3.2,0-5.6,1.8-5.6,4.2c0,2.3,2.5,4.2,5.6,4.2c3.2,0,5.6-1.8,5.6-4.2C214.2,57.9,211.8,56.1,208.6,56.1L208.6,56.1z"/>
</g>
<g>
	<linearGradient id="SVGID_19_" gradientUnits="userSpaceOnUse" x1="165.6189" y1="45.3226" x2="171.6072" y2="45.3226">
		<stop  offset="0" style="stop-color:#FFFFFF"/>
		<stop  offset="2.553141e-02" style="stop-color:#FFF2E4"/>
		<stop  offset="7.004297e-02" style="stop-color:#FFDEBB"/>
		<stop  offset="0.12" style="stop-color:#FFCC95"/>
		<stop  offset="0.1745" style="stop-color:#FFBD75"/>
		<stop  offset="0.2347" style="stop-color:#FFB059"/>
		<stop  offset="0.3027" style="stop-color:#FFA543"/>
		<stop  offset="0.382" style="stop-color:#FF9D32"/>
		<stop  offset="0.4802" style="stop-color:#FF9727"/>
		<stop  offset="0.6179" style="stop-color:#FF9420"/>
		<stop  offset="1" style="stop-color:#FF931E"/>
	</linearGradient>
	<circle class="st21" cx="168.6" cy="45.3" r="3"/>
	<path class="st1" d="M168.6,42.8c1.4,0,2.5,1.1,2.5,2.5s-1.1,2.5-2.5,2.5s-2.5-1.1-2.5-2.5S167.2,42.8,168.6,42.8 M168.6,41.8
		c-1.9,0-3.5,1.6-3.5,3.5s1.6,3.5,3.5,3.5s3.5-1.6,3.5-3.5S170.5,41.8,168.6,41.8L168.6,41.8z"/>
</g>
<g>

		<linearGradient id="SVGID_20_" gradientUnits="userSpaceOnUse" x1="-281.1548" y1="-313.4707" x2="-276.7633" y2="-313.4707" gradientTransform="matrix(-0.9872 0.1597 -0.1597 -0.9872 -133.7821 -189.3814)">
		<stop  offset="0" style="stop-color:#FFFFFF"/>
		<stop  offset="2.553141e-02" style="stop-color:#FFF2E4"/>
		<stop  offset="7.004297e-02" style="stop-color:#FFDEBB"/>
		<stop  offset="0.12" style="stop-color:#FFCC95"/>
		<stop  offset="0.1745" style="stop-color:#FFBD75"/>
		<stop  offset="0.2347" style="stop-color:#FFB059"/>
		<stop  offset="0.3027" style="stop-color:#FFA543"/>
		<stop  offset="0.382" style="stop-color:#FF9D32"/>
		<stop  offset="0.4802" style="stop-color:#FF9727"/>
		<stop  offset="0.6179" style="stop-color:#FF9420"/>
		<stop  offset="1" style="stop-color:#FF931E"/>
	</linearGradient>
	<path class="st22" d="M191.6,77.7c-1.1,0-2-0.8-2.2-1.8c-0.2-1.2,0.6-2.3,1.8-2.5c0.1,0,0.2,0,0.4,0c1.1,0,2,0.8,2.2,1.8
		c0.1,0.6,0,1.2-0.4,1.6c-0.3,0.5-0.9,0.8-1.4,0.9C191.9,77.7,191.8,77.7,191.6,77.7z"/>
	<path class="st1" d="M191.7,73.8c0.8,0,1.5,0.6,1.7,1.4c0.1,0.9-0.5,1.8-1.4,1.9c-0.1,0-0.2,0-0.3,0c-0.8,0-1.5-0.6-1.7-1.4
		c-0.1-0.9,0.5-1.8,1.4-1.9C191.5,73.8,191.6,73.8,191.7,73.8 M191.7,72.8c-0.1,0-0.3,0-0.4,0c-1.5,0.2-2.5,1.6-2.2,3.1
		c0.2,1.3,1.3,2.3,2.7,2.3c0.1,0,0.3,0,0.4,0c0.7-0.1,1.3-0.5,1.8-1.1c0.4-0.6,0.6-1.3,0.5-2C194.1,73.8,193,72.8,191.7,72.8
		L191.7,72.8z"/>
</g>
<g>

		<linearGradient id="SVGID_21_" gradientUnits="userSpaceOnUse" x1="34.3616" y1="-392.0477" x2="37.9182" y2="-392.0477" gradientTransform="matrix(-0.3053 0.9523 -0.9523 -0.3053 -166.3171 -78.745)">
		<stop  offset="0" style="stop-color:#FFFFFF"/>
		<stop  offset="2.553141e-02" style="stop-color:#FFF2E4"/>
		<stop  offset="7.004297e-02" style="stop-color:#FFDEBB"/>
		<stop  offset="0.12" style="stop-color:#FFCC95"/>
		<stop  offset="0.1745" style="stop-color:#FFBD75"/>
		<stop  offset="0.2347" style="stop-color:#FFB059"/>
		<stop  offset="0.3027" style="stop-color:#FFA543"/>
		<stop  offset="0.382" style="stop-color:#FF9D32"/>
		<stop  offset="0.4802" style="stop-color:#FF9727"/>
		<stop  offset="0.6179" style="stop-color:#FF9420"/>
		<stop  offset="1" style="stop-color:#FF931E"/>
	</linearGradient>
	<path class="st23" d="M196,77.1c-0.2,0-0.4,0-0.5-0.1c-0.5-0.1-0.8-0.5-1-0.9c-0.2-0.4-0.3-0.9-0.1-1.4c0.2-0.7,0.9-1.2,1.7-1.2
		c0.2,0,0.4,0,0.5,0.1c0.5,0.1,0.8,0.5,1,0.9c0.2,0.4,0.3,0.9,0.1,1.4C197.4,76.6,196.8,77.1,196,77.1z"/>
	<path class="st1" d="M196,74.1c0.1,0,0.3,0,0.4,0.1c0.7,0.2,1,0.9,0.8,1.6c-0.2,0.5-0.7,0.9-1.2,0.9c-0.1,0-0.3,0-0.4-0.1
		c-0.7-0.2-1-0.9-0.8-1.6C194.9,74.4,195.4,74.1,196,74.1 M196,73.1c-1,0-1.9,0.6-2.2,1.6c-0.2,0.6-0.1,1.2,0.1,1.7s0.8,0.9,1.3,1.1
		c0.2,0.1,0.5,0.1,0.7,0.1c1,0,1.9-0.6,2.2-1.6c0.2-0.6,0.1-1.2-0.1-1.7s-0.8-0.9-1.3-1.1C196.4,73.1,196.2,73.1,196,73.1L196,73.1z
		"/>
</g>
<g>
	<linearGradient id="SVGID_22_" gradientUnits="userSpaceOnUse" x1="152.0154" y1="44.2301" x2="156.408" y2="44.2301">
		<stop  offset="0" style="stop-color:#FFFFFF"/>
		<stop  offset="2.553141e-02" style="stop-color:#FFF2E4"/>
		<stop  offset="7.004297e-02" style="stop-color:#FFDEBB"/>
		<stop  offset="0.12" style="stop-color:#FFCC95"/>
		<stop  offset="0.1745" style="stop-color:#FFBD75"/>
		<stop  offset="0.2347" style="stop-color:#FFB059"/>
		<stop  offset="0.3027" style="stop-color:#FFA543"/>
		<stop  offset="0.382" style="stop-color:#FF9D32"/>
		<stop  offset="0.4802" style="stop-color:#FF9727"/>
		<stop  offset="0.6179" style="stop-color:#FF9420"/>
		<stop  offset="1" style="stop-color:#FF931E"/>
	</linearGradient>
	<circle class="st24" cx="154.2" cy="44.2" r="2.2"/>
	<path class="st1" d="M154.2,42.5c0.9,0,1.7,0.8,1.7,1.7s-0.8,1.7-1.7,1.7c-0.9,0-1.7-0.8-1.7-1.7S153.3,42.5,154.2,42.5
		 M154.2,41.5c-1.5,0-2.7,1.2-2.7,2.7s1.2,2.7,2.7,2.7s2.7-1.2,2.7-2.7S155.7,41.5,154.2,41.5L154.2,41.5z"/>
</g>
<g>
	<linearGradient id="SVGID_23_" gradientUnits="userSpaceOnUse" x1="155.8992" y1="42.9071" x2="159.7078" y2="42.9071">
		<stop  offset="0" style="stop-color:#FFFFFF"/>
		<stop  offset="2.553141e-02" style="stop-color:#FFF2E4"/>
		<stop  offset="7.004297e-02" style="stop-color:#FFDEBB"/>
		<stop  offset="0.12" style="stop-color:#FFCC95"/>
		<stop  offset="0.1745" style="stop-color:#FFBD75"/>
		<stop  offset="0.2347" style="stop-color:#FFB059"/>
		<stop  offset="0.3027" style="stop-color:#FFA543"/>
		<stop  offset="0.382" style="stop-color:#FF9D32"/>
		<stop  offset="0.4802" style="stop-color:#FF9727"/>
		<stop  offset="0.6179" style="stop-color:#FF9420"/>
		<stop  offset="1" style="stop-color:#FF931E"/>
	</linearGradient>
	<path class="st25" d="M158.4,44.8c-0.6,0-1.2-0.3-1.7-0.8c-0.5-0.5-0.8-1.1-0.8-1.7c0-0.4,0.1-0.7,0.4-0.9c0.2-0.2,0.6-0.4,0.9-0.4
		c0.6,0,1.2,0.3,1.7,0.8c0.5,0.5,0.8,1.1,0.8,1.7c0,0.4-0.1,0.7-0.4,0.9C159.1,44.7,158.8,44.8,158.4,44.8z"/>
	<path class="st1" d="M157.2,41.5c0.4,0,0.9,0.2,1.4,0.7c0.7,0.7,0.9,1.5,0.4,1.9c-0.1,0.1-0.4,0.2-0.6,0.2c-0.4,0-0.9-0.2-1.4-0.7
		c-0.7-0.7-0.9-1.5-0.4-1.9C156.8,41.6,157,41.5,157.2,41.5 M157.2,40.5L157.2,40.5c-0.5,0-1,0.2-1.3,0.5c-0.4,0.4-0.6,1.1-0.5,1.8
		c0.1,0.5,0.4,1.1,0.9,1.5c0.6,0.6,1.4,0.9,2.1,0.9c0.5,0,1-0.2,1.3-0.5c0.4-0.4,0.6-1.1,0.5-1.8c-0.1-0.5-0.4-1.1-0.9-1.5
		C158.7,40.8,157.9,40.5,157.2,40.5L157.2,40.5z"/>
</g>
<g>
	<linearGradient id="SVGID_24_" gradientUnits="userSpaceOnUse" x1="156.6189" y1="48.3226" x2="162.6072" y2="48.3226">
		<stop  offset="0" style="stop-color:#FFFFFF"/>
		<stop  offset="2.553141e-02" style="stop-color:#FFF2E4"/>
		<stop  offset="7.004297e-02" style="stop-color:#FFDEBB"/>
		<stop  offset="0.12" style="stop-color:#FFCC95"/>
		<stop  offset="0.1745" style="stop-color:#FFBD75"/>
		<stop  offset="0.2347" style="stop-color:#FFB059"/>
		<stop  offset="0.3027" style="stop-color:#FFA543"/>
		<stop  offset="0.382" style="stop-color:#FF9D32"/>
		<stop  offset="0.4802" style="stop-color:#FF9727"/>
		<stop  offset="0.6179" style="stop-color:#FF9420"/>
		<stop  offset="1" style="stop-color:#FF931E"/>
	</linearGradient>
	<circle class="st26" cx="159.6" cy="48.3" r="3"/>
	<path class="st1" d="M159.6,45.8c1.4,0,2.5,1.1,2.5,2.5s-1.1,2.5-2.5,2.5s-2.5-1.1-2.5-2.5S158.2,45.8,159.6,45.8 M159.6,44.8
		c-1.9,0-3.5,1.6-3.5,3.5s1.6,3.5,3.5,3.5s3.5-1.6,3.5-3.5S161.5,44.8,159.6,44.8L159.6,44.8z"/>
</g>
<g>
	<linearGradient id="SVGID_25_" gradientUnits="userSpaceOnUse" x1="212.0154" y1="70.2298" x2="216.408" y2="70.2298">
		<stop  offset="0" style="stop-color:#FFFFFF"/>
		<stop  offset="2.553141e-02" style="stop-color:#FFF2E4"/>
		<stop  offset="7.004297e-02" style="stop-color:#FFDEBB"/>
		<stop  offset="0.12" style="stop-color:#FFCC95"/>
		<stop  offset="0.1745" style="stop-color:#FFBD75"/>
		<stop  offset="0.2347" style="stop-color:#FFB059"/>
		<stop  offset="0.3027" style="stop-color:#FFA543"/>
		<stop  offset="0.382" style="stop-color:#FF9D32"/>
		<stop  offset="0.4802" style="stop-color:#FF9727"/>
		<stop  offset="0.6179" style="stop-color:#FF9420"/>
		<stop  offset="1" style="stop-color:#FF931E"/>
	</linearGradient>
	<circle class="st27" cx="214.2" cy="70.2" r="2.2"/>
	<path class="st1" d="M214.2,68.5c0.9,0,1.7,0.8,1.7,1.7c0,0.9-0.8,1.7-1.7,1.7c-0.9,0-1.7-0.8-1.7-1.7
		C212.5,69.3,213.3,68.5,214.2,68.5 M214.2,67.5c-1.5,0-2.7,1.2-2.7,2.7c0,1.5,1.2,2.7,2.7,2.7s2.7-1.2,2.7-2.7
		C216.9,68.7,215.7,67.5,214.2,67.5L214.2,67.5z"/>
</g>
<g>
	<linearGradient id="SVGID_26_" gradientUnits="userSpaceOnUse" x1="213.616" y1="74.4818" x2="220.2029" y2="74.4818">
		<stop  offset="0" style="stop-color:#FFFFFF"/>
		<stop  offset="2.553141e-02" style="stop-color:#FFF2E4"/>
		<stop  offset="7.004297e-02" style="stop-color:#FFDEBB"/>
		<stop  offset="0.12" style="stop-color:#FFCC95"/>
		<stop  offset="0.1745" style="stop-color:#FFBD75"/>
		<stop  offset="0.2347" style="stop-color:#FFB059"/>
		<stop  offset="0.3027" style="stop-color:#FFA543"/>
		<stop  offset="0.382" style="stop-color:#FF9D32"/>
		<stop  offset="0.4802" style="stop-color:#FF9727"/>
		<stop  offset="0.6179" style="stop-color:#FF9420"/>
		<stop  offset="1" style="stop-color:#FF931E"/>
	</linearGradient>
	<path class="st28" d="M216.9,76.8c-1.8,0-3.3-1-3.3-2.3s1.4-2.3,3.3-2.3s3.3,1,3.3,2.3S218.8,76.8,216.9,76.8z"/>
	<path class="st1" d="M216.9,72.7c1.5,0,2.8,0.8,2.8,1.8c0,1-1.3,1.8-2.8,1.8s-2.8-0.8-2.8-1.8C214.1,73.5,215.4,72.7,216.9,72.7
		 M216.9,71.7c-2.1,0-3.8,1.2-3.8,2.8s1.7,2.8,3.8,2.8s3.8-1.2,3.8-2.8S219,71.7,216.9,71.7L216.9,71.7z"/>
</g>
<g>

		<linearGradient id="SVGID_27_" gradientUnits="userSpaceOnUse" x1="23.212" y1="-416.8039" x2="26.7686" y2="-416.8039" gradientTransform="matrix(-0.3053 0.9523 -0.9523 -0.3053 -166.3171 -78.745)">
		<stop  offset="0" style="stop-color:#FFFFFF"/>
		<stop  offset="2.553141e-02" style="stop-color:#FFF2E4"/>
		<stop  offset="7.004297e-02" style="stop-color:#FFDEBB"/>
		<stop  offset="0.12" style="stop-color:#FFCC95"/>
		<stop  offset="0.1745" style="stop-color:#FFBD75"/>
		<stop  offset="0.2347" style="stop-color:#FFB059"/>
		<stop  offset="0.3027" style="stop-color:#FFA543"/>
		<stop  offset="0.382" style="stop-color:#FF9D32"/>
		<stop  offset="0.4802" style="stop-color:#FF9727"/>
		<stop  offset="0.6179" style="stop-color:#FF9420"/>
		<stop  offset="1" style="stop-color:#FF931E"/>
	</linearGradient>
	<path class="st29" d="M223,74.1c-0.2,0-0.4,0-0.5-0.1c-0.5-0.1-0.8-0.5-1-0.9c-0.2-0.4-0.3-0.9-0.1-1.4c0.2-0.7,0.9-1.2,1.7-1.2
		c0.2,0,0.4,0,0.5,0.1c0.9,0.3,1.4,1.3,1.2,2.2C224.4,73.6,223.7,74.1,223,74.1z"/>
	<path class="st1" d="M223,71c0.1,0,0.3,0,0.4,0.1c0.7,0.2,1,0.9,0.8,1.6c-0.2,0.5-0.7,0.9-1.2,0.9c-0.1,0-0.3,0-0.4-0.1
		c-0.7-0.2-1-0.9-0.8-1.6C221.9,71.4,222.4,71,223,71 M223,70L223,70c-1,0-1.9,0.6-2.2,1.6c-0.2,0.6-0.1,1.2,0.1,1.7
		s0.8,0.9,1.3,1.1c0.2,0.1,0.5,0.1,0.7,0.1c1,0,1.9-0.6,2.2-1.6c0.2-0.6,0.1-1.2-0.1-1.7c-0.3-0.5-0.8-0.9-1.3-1.1
		C223.4,70.1,223.2,70,223,70L223,70z"/>
</g>
</svg>
